<svg width="16" height="17" viewBox="0 0 16 17" fill="none" xmlns="http://www.w3.org/2000/svg">
<path d="M9.33332 1.83333H3.99999C3.64637 1.83333 3.30723 1.97381 3.05718 2.22386C2.80713 2.4739 2.66666 2.81304 2.66666 3.16667V13.8333C2.66666 14.187 2.80713 14.5261 3.05718 14.7761C3.30723 15.0262 3.64637 15.1667 3.99999 15.1667H12C12.3536 15.1667 12.6927 15.0262 12.9428 14.7761C13.1928 14.5261 13.3333 14.187 13.3333 13.8333V5.83333L9.33332 1.83333Z" stroke="white" stroke-linecap="round" stroke-linejoin="round"/>
<path d="M9.33334 1.83333V5.83333H13.3333" stroke="white" stroke-linecap="round" stroke-linejoin="round"/>
<path d="M10.6667 9.16666H5.33334" stroke="white" stroke-linecap="round" stroke-linejoin="round"/>
<path d="M10.6667 11.8333H5.33334" stroke="white" stroke-linecap="round" stroke-linejoin="round"/>
<path d="M6.66668 6.5H6.00001H5.33334" stroke="white" stroke-linecap="round" stroke-linejoin="round"/>
</svg>
