<svg width="17" height="17" viewBox="0 0 17 17" fill="none" xmlns="http://www.w3.org/2000/svg">
<path d="M12.3976 14.3333H4.10427C3.87308 14.3239 3.64602 14.269 3.43608 14.1717C3.22614 14.0744 3.03744 13.9367 2.88078 13.7664C2.72412 13.5961 2.60257 13.3966 2.5231 13.1793C2.44362 12.962 2.40777 12.7312 2.41761 12.5V10.5C2.41761 10.3674 2.47028 10.2402 2.56405 10.1464C2.65782 10.0527 2.785 10 2.91761 10C3.05021 10 3.17739 10.0527 3.27116 10.1464C3.36493 10.2402 3.41761 10.3674 3.41761 10.5V12.5C3.40039 12.698 3.46003 12.8949 3.58416 13.0501C3.70829 13.2052 3.88737 13.3067 4.08427 13.3333H12.3976C12.5945 13.3067 12.7736 13.2052 12.8977 13.0501C13.0218 12.8949 13.0815 12.698 13.0643 12.5V10.5C13.0643 10.3674 13.117 10.2402 13.2107 10.1464C13.3045 10.0527 13.4317 10 13.5643 10C13.6969 10 13.8241 10.0527 13.9178 10.1464C14.0116 10.2402 14.0643 10.3674 14.0643 10.5V12.5C14.0842 12.9636 13.9203 13.4163 13.6082 13.7596C13.2961 14.103 12.861 14.3092 12.3976 14.3333Z" fill="white"/>
<path d="M8.2499 11C8.1842 11.0003 8.11911 10.9875 8.05844 10.9623C7.99776 10.9371 7.94273 10.9001 7.89656 10.8534L5.2299 8.18669C5.14158 8.0919 5.0935 7.96654 5.09578 7.83701C5.09807 7.70747 5.15054 7.58388 5.24215 7.49227C5.33376 7.40066 5.45735 7.34819 5.58688 7.3459C5.71642 7.34362 5.84178 7.3917 5.93656 7.48002L8.2499 9.79335L10.5632 7.48002C10.658 7.3917 10.7834 7.34362 10.9129 7.3459C11.0424 7.34819 11.166 7.40066 11.2576 7.49227C11.3493 7.58388 11.4017 7.70747 11.404 7.83701C11.4063 7.96654 11.3582 8.0919 11.2699 8.18669L8.60323 10.8534C8.55707 10.9001 8.50203 10.9371 8.44136 10.9623C8.38069 10.9875 8.31559 11.0003 8.2499 11Z" fill="white"/>
<path d="M8.25 11C8.11793 10.9982 7.99175 10.945 7.89836 10.8516C7.80496 10.7582 7.75173 10.632 7.75 10.5V3.16663C7.75 3.03402 7.80268 2.90684 7.89645 2.81307C7.99022 2.7193 8.11739 2.66663 8.25 2.66663C8.38261 2.66663 8.50978 2.7193 8.60355 2.81307C8.69732 2.90684 8.75 3.03402 8.75 3.16663V10.5C8.74827 10.632 8.69504 10.7582 8.60164 10.8516C8.50825 10.945 8.38207 10.9982 8.25 11Z" fill="white"/>
</svg>
