<svg width="184" height="161" viewBox="0 0 184 161" fill="none" xmlns="http://www.w3.org/2000/svg">
<path d="M92.006 126.543C92.8453 126.543 93.5257 125.862 93.5257 125.023C93.5257 124.184 92.8453 123.503 92.006 123.503C91.1667 123.503 90.4863 124.184 90.4863 125.023C90.4863 125.862 91.1667 126.543 92.006 126.543Z" fill="#CFCFCF"/>
<path d="M47.8555 12.1272V18.7956" stroke="#BABABA" stroke-width="1.55078" stroke-linecap="round" stroke-linejoin="round"/>
<path d="M44.5059 15.4612H51.1897" stroke="#BABABA" stroke-width="1.55078" stroke-linecap="round" stroke-linejoin="round"/>
<path d="M123.765 54.1839C110.785 54.1839 97.5727 53.6567 85.2131 50.2138C73.086 46.8486 61.9516 40.32 52.0266 32.7677C45.5289 27.8518 39.6206 23.9282 31.1843 24.5175C22.9312 24.9642 15.039 28.0458 8.66704 33.3103C-2.06439 42.7079 -0.451344 60.1231 3.84426 72.3121C10.2955 90.7198 29.9283 103.545 46.6145 111.841C65.8904 121.471 87.0741 127.07 108.304 130.28C126.913 133.118 150.826 135.165 166.954 123.022C181.764 111.841 185.827 86.3463 182.198 69.133C181.317 64.0479 178.61 59.4594 174.584 56.2307C164.179 48.6165 148.655 53.7031 136.963 53.951C132.62 54.0444 128.201 54.1529 123.765 54.1839Z" fill="#F2F2F2"/>
<path d="M102.768 3.03946C103.607 3.03946 104.287 2.35912 104.287 1.51977C104.287 0.680433 103.607 9.15527e-05 102.768 9.15527e-05C101.928 9.15527e-05 101.248 0.680433 101.248 1.51977C101.248 2.35912 101.928 3.03946 102.768 3.03946Z" fill="#CFCFCF"/>
<path d="M23.8027 121.379V128.047" stroke="#BABABA" stroke-width="1.55078" stroke-linecap="round" stroke-linejoin="round"/>
<path d="M20.4688 124.713H27.1371" stroke="#BABABA" stroke-width="1.55078" stroke-linecap="round" stroke-linejoin="round"/>
<path d="M92.626 160.458C124.066 160.458 149.555 158.869 149.555 156.907C149.555 154.945 124.066 153.355 92.626 153.355C61.185 153.355 35.6973 154.945 35.6973 156.907C35.6973 158.869 61.185 160.458 92.626 160.458Z" fill="#F2F2F2"/>
<path d="M138.39 118.867H40.0562C39.3983 118.867 38.748 118.722 38.1508 118.446C37.5536 118.17 37.0235 117.767 36.5973 117.266C36.171 116.764 35.8589 116.176 35.6824 115.542C35.5059 114.908 35.4688 114.244 35.5744 113.594L48.1511 37.3273C48.3212 36.266 48.8644 35.2997 49.6831 34.6033C50.502 33.9066 51.5423 33.5253 52.6174 33.528H150.952C151.609 33.528 152.259 33.6712 152.856 33.9478C153.452 34.2244 153.982 34.6275 154.407 35.1293C154.832 35.6311 155.142 36.2193 155.317 36.8532C155.491 37.4875 155.527 38.1518 155.418 38.8003L142.904 115.067C142.73 116.136 142.179 117.105 141.351 117.803C140.523 118.499 139.473 118.877 138.39 118.867Z" fill="#D2D2D2"/>
<path d="M139.599 31.5333L81.2306 5.47233C79.5099 4.70417 77.4925 5.47612 76.7243 7.19681L58.225 48.63C57.4568 50.3507 58.2288 52.3681 59.9492 53.1362L118.318 79.1969C120.039 79.9651 122.057 79.1931 122.824 77.4727L141.323 36.0396C142.093 34.3189 141.321 32.3015 139.599 31.5333Z" fill="white" stroke="#BABABA" stroke-width="1.55078" stroke-linecap="round" stroke-linejoin="round"/>
<path d="M89.7891 39.5603C91.3254 37.4043 93.5598 35.8461 96.1137 35.1495C98.6676 34.4528 101.384 34.6602 103.802 35.737C106.221 36.8138 108.192 38.6938 109.383 41.0581C110.574 43.4224 110.911 46.1257 110.337 48.7099" stroke="#BABABA" stroke-width="1.05453" stroke-linecap="round" stroke-linejoin="round"/>
<path d="M117.703 37.2185C118.585 37.2185 119.3 36.5031 119.3 35.6212C119.3 34.739 118.585 34.0239 117.703 34.0239C116.821 34.0239 116.105 34.739 116.105 35.6212C116.105 36.5034 116.821 37.2185 117.703 37.2185Z" fill="#BABABA"/>
<path d="M94.5641 26.8906C95.446 26.8906 96.1614 26.1755 96.1614 25.2933C96.1614 24.4113 95.446 23.696 94.5641 23.696C93.6819 23.696 92.9668 24.4113 92.9668 25.2933C92.9668 26.1755 93.6819 26.8906 94.5641 26.8906Z" fill="#BABABA"/>
<path d="M137.956 118.836H39.1407C37.9385 118.831 36.7867 118.35 35.938 117.499C35.089 116.648 34.6126 115.494 34.6126 114.292V44.6156C34.5983 44.0111 34.7045 43.4098 34.9254 42.8471C35.1462 42.284 35.4773 41.7711 35.8992 41.3376C36.3208 40.9044 36.8249 40.5595 37.3815 40.3235C37.9382 40.0875 38.5362 39.9649 39.141 39.9632H75.1344C75.9696 39.9664 76.7877 40.1995 77.4992 40.6371C78.2105 41.075 78.7876 41.7002 79.1665 42.4445L84.2994 52.4935C84.6772 53.2389 85.2537 53.8653 85.9656 54.3029C86.6771 54.7408 87.4961 54.9733 88.3316 54.9748H137.956C139.156 54.9748 140.308 55.4518 141.158 56.301C142.007 57.1503 142.484 58.3021 142.484 59.5032V114.292C142.484 115.494 142.008 116.647 141.158 117.499C140.31 118.35 139.157 118.831 137.956 118.836Z" fill="white" stroke="#BABABA" stroke-width="1.55078" stroke-linecap="round" stroke-linejoin="round"/>
<path d="M122.742 57.3475C117.034 57.3443 111.453 59.0343 106.704 62.2038C101.956 65.373 98.2551 69.8792 96.0685 75.1525C93.8819 80.4257 93.308 86.2287 94.4198 91.8281C95.5317 97.4273 98.279 102.571 102.314 106.609C106.35 110.647 111.492 113.397 117.091 114.512C122.69 115.627 128.493 115.057 133.767 112.872C139.042 110.688 143.551 106.989 146.722 102.243C149.893 97.497 151.587 91.9163 151.587 86.2077C151.587 78.5562 148.549 71.218 143.14 65.8062C137.731 60.3938 130.394 57.3516 122.742 57.3475Z" fill="white" stroke="#BABABA" stroke-width="1.55078" stroke-linecap="round" stroke-linejoin="round"/>
<path d="M143.273 107.143L150.965 114.834" stroke="#BABABA" stroke-width="1.55078" stroke-linecap="round" stroke-linejoin="round"/>
<path d="M150.096 111.097L147.708 113.597C146.636 114.719 146.677 116.494 147.796 117.566L168.535 137.391C169.654 138.462 171.432 138.422 172.503 137.301L174.893 134.801C175.964 133.681 175.924 131.904 174.803 130.833L154.066 111.008C152.945 109.937 151.168 109.977 150.096 111.097Z" fill="#D2D2D2"/>
<path d="M165.451 1.51981V8.20361" stroke="#BABABA" stroke-width="1.55078" stroke-linecap="round" stroke-linejoin="round"/>
<path d="M162.102 4.86957H168.785" stroke="#BABABA" stroke-width="1.55078" stroke-linecap="round" stroke-linejoin="round"/>
</svg>
