<svg width="46" height="46" viewBox="0 0 46 46" fill="none" xmlns="http://www.w3.org/2000/svg">
<g clip-path="url(#clip0_32205_41920)">
<path d="M25.0572 23L31.2672 16.79C31.4766 16.5456 31.586 16.2311 31.5735 15.9095C31.5611 15.588 31.4278 15.2829 31.2002 15.0553C30.9727 14.8278 30.6676 14.6945 30.346 14.682C30.0245 14.6696 29.71 14.779 29.4656 14.9883L23.2556 21.1344L17.0072 14.8861C16.7628 14.6768 16.4484 14.5674 16.1268 14.5798C15.8052 14.5922 15.5001 14.7255 15.2726 14.9531C15.045 15.1807 14.9117 15.4857 14.8993 15.8073C14.8869 16.1289 14.9962 16.4433 15.2056 16.6878L21.4411 23L15.3334 29.0311C15.1996 29.1457 15.091 29.2866 15.0143 29.4451C14.9376 29.6037 14.8945 29.7763 14.8877 29.9523C14.8809 30.1283 14.9105 30.3038 14.9748 30.4677C15.039 30.6317 15.1364 30.7806 15.261 30.9052C15.3855 31.0297 15.5344 31.1271 15.6984 31.1914C15.8624 31.2556 16.0378 31.2853 16.2138 31.2785C16.3898 31.2717 16.5625 31.2286 16.721 31.1519C16.8795 31.0752 17.0205 30.9665 17.135 30.8328L23.23 24.7378L29.2867 30.7944C29.5311 31.0038 29.8456 31.1132 30.1671 31.1007C30.4887 31.0883 30.7938 30.955 31.0214 30.7274C31.2489 30.4999 31.3822 30.1948 31.3947 29.8732C31.4071 29.5516 31.2977 29.2372 31.0884 28.9928L25.0572 23Z" fill="white"/>
<path d="M22.9991 43.4444C18.9556 43.4444 15.0029 42.2454 11.6408 39.9989C8.27874 37.7525 5.65833 34.5595 4.11094 30.8237C2.56355 27.088 2.15868 22.9773 2.94753 19.0115C3.73638 15.0456 5.68353 11.4028 8.54274 8.54359C11.4019 5.68438 15.0448 3.73724 19.0106 2.94839C22.9765 2.15953 27.0872 2.5644 30.8229 4.11179C34.5586 5.65918 37.7516 8.2796 39.9981 11.6417C42.2445 15.0037 43.4436 18.9565 43.4436 23C43.4436 28.4222 41.2896 33.6223 37.4555 37.4564C33.6215 41.2905 28.4213 43.4444 22.9991 43.4444ZM22.9991 5.11111C19.4611 5.11111 16.0024 6.16027 13.0606 8.12593C10.1188 10.0916 7.82593 12.8854 6.47196 16.1542C5.118 19.423 4.76374 23.0198 5.45398 26.4899C6.14423 29.96 7.84798 33.1475 10.3498 35.6493C12.8516 38.1512 16.0391 39.8549 19.5092 40.5452C22.9793 41.2354 26.5762 40.8811 29.8449 39.5272C33.1137 38.1732 35.9076 35.8803 37.8732 32.9385C39.8389 29.9967 40.888 26.5381 40.888 23C40.888 18.2556 39.0033 13.7055 35.6485 10.3506C32.2937 6.99582 27.7436 5.11111 22.9991 5.11111Z" fill="white"/>
</g>
<defs>
<clipPath id="clip0_32205_41920">
<rect width="46" height="46" fill="white"/>
</clipPath>
</defs>
</svg>
