<svg width="16" height="17" viewBox="0 0 16 17" fill="none" xmlns="http://www.w3.org/2000/svg">
<g clip-path="url(#clip0_30_2165)">
<path d="M8 10.5C9.10457 10.5 10 9.60457 10 8.5C10 7.39543 9.10457 6.5 8 6.5C6.89543 6.5 6 7.39543 6 8.5C6 9.60457 6.89543 10.5 8 10.5Z" stroke="white" stroke-linecap="round" stroke-linejoin="round"/>
<path d="M12.9333 10.5C12.8446 10.7011 12.8181 10.9241 12.8573 11.1404C12.8965 11.3567 12.9996 11.5562 13.1533 11.7133L13.1933 11.7533C13.3173 11.8772 13.4156 12.0242 13.4827 12.1861C13.5498 12.3479 13.5844 12.5214 13.5844 12.6967C13.5844 12.8719 13.5498 13.0454 13.4827 13.2073C13.4156 13.3691 13.3173 13.5162 13.1933 13.64C13.0695 13.764 12.9224 13.8623 12.7606 13.9294C12.5987 13.9965 12.4252 14.031 12.25 14.031C12.0748 14.031 11.9013 13.9965 11.7394 13.9294C11.5775 13.8623 11.4305 13.764 11.3067 13.64L11.2667 13.6C11.1095 13.4463 10.91 13.3432 10.6937 13.304C10.4775 13.2648 10.2544 13.2913 10.0533 13.38C9.85614 13.4645 9.68798 13.6048 9.56953 13.7837C9.45108 13.9626 9.38751 14.1721 9.38666 14.3867V14.5C9.38666 14.8536 9.24618 15.1928 8.99613 15.4428C8.74608 15.6929 8.40694 15.8333 8.05332 15.8333C7.6997 15.8333 7.36056 15.6929 7.11051 15.4428C6.86047 15.1928 6.71999 14.8536 6.71999 14.5V14.44C6.71483 14.2193 6.6434 14.0053 6.515 13.8258C6.38659 13.6463 6.20715 13.5095 5.99999 13.4333C5.79891 13.3446 5.57586 13.3181 5.3596 13.3573C5.14333 13.3965 4.94378 13.4996 4.78666 13.6533L4.74666 13.6933C4.62283 13.8173 4.47577 13.9156 4.31391 13.9827C4.15205 14.0498 3.97854 14.0844 3.80332 14.0844C3.6281 14.0844 3.4546 14.0498 3.29274 13.9827C3.13087 13.9156 2.98382 13.8173 2.85999 13.6933C2.73602 13.5695 2.63768 13.4225 2.57058 13.2606C2.50348 13.0987 2.46894 12.9252 2.46894 12.75C2.46894 12.5748 2.50348 12.4013 2.57058 12.2394C2.63768 12.0775 2.73602 11.9305 2.85999 11.8067L2.89999 11.7667C3.05368 11.6095 3.15678 11.41 3.19599 11.1937C3.23521 10.9775 3.20873 10.7544 3.11999 10.5533C3.03548 10.3562 2.89516 10.188 2.7163 10.0695C2.53744 9.95109 2.32785 9.88752 2.11332 9.88667H1.99999C1.64637 9.88667 1.30723 9.74619 1.05718 9.49614C0.807132 9.24609 0.666656 8.90696 0.666656 8.55333C0.666656 8.19971 0.807132 7.86057 1.05718 7.61053C1.30723 7.36048 1.64637 7.22 1.99999 7.22H2.05999C2.28065 7.21484 2.49466 7.14341 2.67419 7.01501C2.85372 6.8866 2.99047 6.70716 3.06666 6.5C3.1554 6.29892 3.18187 6.07587 3.14266 5.85961C3.10345 5.64335 3.00035 5.44379 2.84666 5.28667L2.80666 5.24667C2.68269 5.12284 2.58434 4.97579 2.51724 4.81392C2.45014 4.65206 2.41561 4.47856 2.41561 4.30333C2.41561 4.12811 2.45014 3.95461 2.51724 3.79275C2.58434 3.63088 2.68269 3.48383 2.80666 3.36C2.93049 3.23603 3.07754 3.13769 3.2394 3.07059C3.40127 3.00349 3.57477 2.96895 3.74999 2.96895C3.92521 2.96895 4.09871 3.00349 4.26058 3.07059C4.42244 3.13769 4.56949 3.23603 4.69332 3.36L4.73332 3.4C4.89044 3.55369 5.09 3.65679 5.30626 3.696C5.52253 3.73522 5.74558 3.70874 5.94666 3.62H5.99999C6.19717 3.53549 6.36533 3.39517 6.48378 3.21631C6.60224 3.03745 6.6658 2.82786 6.66666 2.61333V2.5C6.66666 2.14638 6.80713 1.80724 7.05718 1.55719C7.30723 1.30714 7.64637 1.16667 7.99999 1.16667C8.35361 1.16667 8.69275 1.30714 8.9428 1.55719C9.19285 1.80724 9.33332 2.14638 9.33332 2.5V2.56C9.33418 2.77453 9.39774 2.98412 9.51619 3.16298C9.63464 3.34184 9.80281 3.48216 9.99999 3.56667C10.2011 3.65541 10.4241 3.68188 10.6404 3.64267C10.8566 3.60346 11.0562 3.50036 11.2133 3.34667L11.2533 3.30667C11.3772 3.1827 11.5242 3.08435 11.6861 3.01725C11.8479 2.95016 12.0214 2.91562 12.1967 2.91562C12.3719 2.91562 12.5454 2.95016 12.7072 3.01725C12.8691 3.08435 13.0162 3.1827 13.14 3.30667C13.264 3.4305 13.3623 3.57755 13.4294 3.73941C13.4965 3.90128 13.531 4.07478 13.531 4.25C13.531 4.42522 13.4965 4.59872 13.4294 4.76059C13.3623 4.92245 13.264 5.0695 13.14 5.19333L13.1 5.23333C12.9463 5.39045 12.8432 5.59001 12.804 5.80628C12.7648 6.02254 12.7912 6.24559 12.88 6.44667V6.5C12.9645 6.69718 13.1048 6.86535 13.2837 6.9838C13.4625 7.10225 13.6721 7.16581 13.8867 7.16667H14C14.3536 7.16667 14.6927 7.30714 14.9428 7.55719C15.1928 7.80724 15.3333 8.14638 15.3333 8.5C15.3333 8.85362 15.1928 9.19276 14.9428 9.44281C14.6927 9.69286 14.3536 9.83333 14 9.83333H13.94C13.7255 9.83419 13.5159 9.89776 13.337 10.0162C13.1582 10.1347 13.0178 10.3028 12.9333 10.5Z" stroke="white" stroke-linecap="round" stroke-linejoin="round"/>
</g>
<defs>
<clipPath id="clip0_30_2165">
<rect width="16" height="16" fill="white" transform="translate(0 0.5)"/>
</clipPath>
</defs>
</svg>
